<svg width="35" height="35" viewBox="0 0 35 35" fill="none" xmlns="http://www.w3.org/2000/svg">
<rect width="35" height="35" rx="5" fill="#FF6900"/>
<path d="M18.0001 8C14.4481 8 12.0001 10.448 12.0001 14C12.0001 14.485 12.0001 15 12.0001 16C12.0001 17 11.8382 17.54 11.2811 18C11.2181 18.052 10.9541 18.279 10.8751 18.344C9.61014 19.39 8.98914 20.37 9.00014 22C9.00814 23.078 9.89314 24.011 11.0001 24H15.1911C15.1911 24 15.0001 24.6111 15.0001 25.0001C15.0001 26.6571 16.3431 28.0001 18.0001 28.0001C19.6571 28.0001 21.0001 26.6571 21.0001 25.0001C21.0001 24.6111 20.8171 24 20.8171 24H25.0001C26.1041 24.003 26.9991 23.084 27.0001 22C27.0021 20.382 26.3741 19.385 25.1251 18.344C25.0431 18.275 24.7532 18.054 24.6882 18C24.1432 17.546 24.0001 17 24.0001 16C24.0001 14.75 24.0001 14 24.0001 14C24.0001 10.448 21.5521 8 18.0001 8ZM18.0001 24C18.5521 24 19.0001 24.4481 19.0001 25.0001C19.0001 25.5521 18.5521 26.0001 18.0001 26.0001C17.4481 26.0001 17.0001 25.5521 17.0001 25.0001C17.0001 24.4481 17.4481 24 18.0001 24Z" fill="white"/>
</svg>
