<svg width="39" height="40" viewBox="0 0 39 40" fill="none" xmlns="http://www.w3.org/2000/svg">
<path d="M0 4.6142C0 2.06585 2.06585 0 4.6142 0H33.4529C30.9046 0 28.8387 2.06585 28.8387 4.6142V31.0016H28.8343C28.8372 31.0493 28.8387 31.0974 28.8387 31.1458V37.6883C28.8387 39.7437 26.3537 40.773 24.9003 39.3196L16.0507 30.4701C15.1498 29.5691 13.689 29.5691 12.788 30.4701L3.93846 39.3196C2.48507 40.773 0 39.7437 0 37.6883V31.1458C0 31.0974 0.00149209 31.0493 0.00443281 31.0016H0V4.6142Z" fill="#BF5C00"/>
<path d="M0 4.6142C0 2.06585 2.06585 0 4.6142 0H33.4529C30.9046 0 28.8387 2.06585 28.8387 4.6142V31.0016H28.8343C28.8372 31.0493 28.8387 31.0974 28.8387 31.1458V37.6883C28.8387 39.7437 26.3537 40.773 24.9003 39.3196L16.0507 30.4701C15.1498 29.5691 13.689 29.5691 12.788 30.4701L3.93846 39.3196C2.48507 40.773 0 39.7437 0 37.6883V31.1458C0 31.0974 0.00149209 31.0493 0.00443281 31.0016H0V4.6142Z" fill="url(#paint0_linear_22_779)"/>
<path d="M38.0671 4.6142C38.0671 2.06585 36.0013 0 33.4529 0C30.9046 0 28.8387 2.06585 28.8387 4.6142V18.4568H33.4529C36.0013 18.4568 38.0671 16.3909 38.0671 13.8426V4.6142Z" fill="#BF7129"/>
<path d="M38.0671 4.6142C38.0671 2.06585 36.0013 0 33.4529 0C30.9046 0 28.8387 2.06585 28.8387 4.6142V18.4568H33.4529C36.0013 18.4568 38.0671 16.3909 38.0671 13.8426V4.6142Z" fill="url(#paint1_radial_22_779)"/>
<defs>
<linearGradient id="paint0_linear_22_779" x1="16.7265" y1="0" x2="16.7265" y2="40" gradientUnits="userSpaceOnUse">
<stop stop-color="#FFA438"/>
<stop offset="1" stop-color="#FF8A01" stop-opacity="0"/>
</linearGradient>
<radialGradient id="paint1_radial_22_779" cx="0" cy="0" r="1" gradientUnits="userSpaceOnUse" gradientTransform="translate(20.6447 -12.6333) rotate(59.1744) scale(46.6289 23.3144)">
<stop stop-color="#6B2010"/>
<stop offset="1" stop-opacity="0"/>
</radialGradient>
</defs>
</svg>
