<svg width="200" height="91" viewBox="0 0 200 91" fill="none" xmlns="http://www.w3.org/2000/svg">
<rect width="200" height="90.9091" rx="10" fill="#17192A"/>
<path d="M28.0647 64.9208C27.4542 65.0696 26.6911 65.0696 25.928 64.9208C25.7754 64.9208 25.7754 64.9208 25.6228 64.772C25.3176 64.6232 25.0123 64.4744 24.7071 64.1768C24.0966 63.5815 23.7914 62.8375 23.7914 61.9447C23.7914 61.0519 24.0966 60.3079 24.7071 59.7127C25.1649 59.7127 25.4702 59.5639 25.7754 59.4151C25.928 59.4151 25.928 59.4151 26.0807 59.2663L27.149 58.9687L36.6113 56.2902C37.0691 56.1414 37.527 55.8438 37.8322 55.5462C37.9849 55.3974 38.1375 55.0998 38.2901 54.951C38.4427 54.6534 38.5953 54.3558 38.5953 54.207C38.7479 53.7606 38.5953 52.719 38.5953 52.2726C38.5953 52.2726 39.0532 52.1238 39.511 51.9749L50.0417 48.9989C50.3469 48.8501 50.6521 48.7013 50.9574 48.5525L57.8252 50.6357C60.7249 51.5285 60.7249 55.5462 57.8252 56.2902L50.9574 58.2247L49.8891 58.5223L48.5155 58.9687L37.8322 62.0935L28.0647 64.9208Z" fill="#0555FC"/>
<path d="M28.0648 47.5109C27.4543 47.6597 26.6912 47.6597 26.0807 47.5109C25.9281 47.5109 25.9281 47.5109 25.7755 47.3621C25.4703 47.2133 25.165 47.0644 24.8598 46.7668C24.2493 46.1716 23.9441 45.4276 23.9441 44.5348C23.9441 43.642 24.2493 42.898 24.8598 42.3028C25.165 42.154 25.4703 41.8564 25.7755 41.7076C25.9281 41.7076 25.9281 41.7076 26.0807 41.5588L27.1491 41.2612L36.6114 38.5827C37.0692 38.4339 37.5271 38.1363 37.8323 37.8387C37.9849 37.6899 38.1376 37.3923 38.2902 37.2435C38.4428 36.9459 38.5954 36.6483 38.5954 36.4995C38.748 36.0531 38.5954 35.0114 38.5954 34.565C38.5954 34.565 39.0533 34.4162 39.5111 34.2674L50.0418 31.2914C50.347 31.1426 50.6522 30.9938 50.9575 30.845L57.8253 32.9282C60.725 33.821 60.725 37.8387 57.8253 38.5827L50.9575 40.5171L49.8892 40.8147L48.5156 41.2612L37.8323 44.386L28.0648 47.5109Z" fill="#0555FC"/>
<path fill-rule="evenodd" clip-rule="evenodd" d="M34.9326 26.3808L24.8598 29.3569C23.181 27.8689 23.6389 24.8928 26.0808 24.1488C26.386 24.1488 26.6912 24 26.9965 24C27.3017 24 27.607 24 27.9122 24.1488L34.9326 26.3808Z" fill="#0555FC"/>
<path fill-rule="evenodd" clip-rule="evenodd" d="M50.4996 29.3571C50.347 29.5059 50.0418 29.8035 49.5839 29.8035C49.5839 29.8035 49.4313 29.8035 49.2787 29.9523L48.2103 30.25L38.9006 32.9284C38.4428 33.0772 37.9849 33.3748 37.6797 33.6724C37.5271 33.8212 37.3745 34.1188 37.2218 34.2676C37.0692 34.5652 36.9166 34.8628 36.9166 35.0116C36.764 35.458 36.764 36.0533 36.9166 36.6485C36.9166 36.7973 36.9166 36.7973 37.0692 36.9461L24.4019 40.6661L17.8394 38.7317C14.9396 37.8389 14.9396 33.8212 17.8394 33.0772L24.5545 30.994L25.6229 30.6964L26.9964 30.25L37.6797 27.1251L39.0533 26.6787L40.4268 26.3811L47.5999 24.2979C47.9051 24.149 48.2103 24.149 48.363 24.149C48.6682 24.149 48.9734 24.149 49.2787 24.2979C51.8732 24.8931 52.1784 27.8691 50.4996 29.3571Z" fill="#BEE800"/>
<path fill-rule="evenodd" clip-rule="evenodd" d="M40.4269 63.1355L50.4997 60.1594C52.1785 61.6474 51.7206 64.4747 49.2787 65.2187C48.9735 65.3675 48.6683 65.3675 48.363 65.3675C48.0578 65.3675 47.7525 65.3675 47.4473 65.2187L40.4269 63.1355Z" fill="#BEE800"/>
<path fill-rule="evenodd" clip-rule="evenodd" d="M50.4996 46.767C50.1944 46.9159 49.8891 47.2135 49.5839 47.3623C49.5839 47.3623 49.4313 47.3623 49.2787 47.5111L48.2103 47.8087L38.9006 50.4871C38.4428 50.6359 37.9849 50.9335 37.6797 51.2311C37.5271 51.3799 37.3745 51.6775 37.2218 51.8263C37.0692 52.1239 36.9166 52.4215 36.9166 52.5703C36.764 53.0168 36.764 53.612 36.9166 54.2072C36.9166 54.356 36.9166 54.356 37.0692 54.5048L24.4019 58.2248L17.8394 56.2904C14.9396 55.3976 14.9396 51.3799 17.8394 50.6359L24.5545 48.5527L25.6229 48.2551L26.9964 47.8087L37.6797 44.6838L39.0533 44.2374L40.4268 43.791L47.5999 41.7078C47.9051 41.559 48.2103 41.559 48.363 41.559C48.6682 41.559 48.9734 41.559 49.2787 41.7078C51.8732 42.4518 52.1784 45.4278 50.4996 46.767Z" fill="#BEE800"/>
<path d="M80.5498 40.2812C80.4277 39.5895 80.1714 38.9914 79.7808 38.4868C79.3901 37.9823 78.8937 37.5998 78.2915 37.3394C77.6974 37.0708 77.0423 36.9365 76.3262 36.9365C75.3496 36.9365 74.491 37.1807 73.7505 37.6689C73.0099 38.1491 72.4321 38.8571 72.0171 39.793C71.6021 40.7288 71.3945 41.8519 71.3945 43.1621C71.3945 44.4805 71.6021 45.6076 72.0171 46.5435C72.4321 47.4793 73.0099 48.1873 73.7505 48.6675C74.4992 49.1476 75.3577 49.3877 76.3262 49.3877C77.026 49.3877 77.6689 49.2616 78.2549 49.0093C78.849 48.7489 79.3454 48.3745 79.7441 47.8862C80.1429 47.3979 80.4115 46.8161 80.5498 46.1406H83.748C83.5853 47.2799 83.1743 48.3135 82.5151 49.2412C81.8641 50.1689 81.0015 50.9014 79.9272 51.4385C78.853 51.9756 77.6364 52.2441 76.2773 52.2441C74.723 52.2441 73.3314 51.882 72.1025 51.1577C70.8818 50.4253 69.9256 49.3755 69.2339 48.0083C68.5422 46.633 68.1963 45.0176 68.1963 43.1621C68.1963 41.2985 68.5422 39.6831 69.2339 38.3159C69.9338 36.9487 70.894 35.903 72.1147 35.1787C73.3436 34.4463 74.7311 34.0801 76.2773 34.0801C77.5794 34.0801 78.7635 34.3283 79.8296 34.8247C80.8957 35.313 81.7705 36.0251 82.4541 36.9609C83.1377 37.8887 83.569 38.9954 83.748 40.2812H80.5498ZM91.4971 52.2686C90.2275 52.2686 89.1126 51.9837 88.1523 51.4141C87.1921 50.8444 86.4515 50.0469 85.9307 49.0215C85.4098 47.988 85.1494 46.7917 85.1494 45.4326C85.1494 44.0654 85.4098 42.8651 85.9307 41.8315C86.4515 40.798 87.1921 39.9964 88.1523 39.4268C89.1126 38.8571 90.2275 38.5723 91.4971 38.5723C92.7747 38.5723 93.8937 38.8571 94.854 39.4268C95.8143 39.9964 96.5508 40.798 97.0635 41.8315C97.5843 42.8651 97.8447 44.0654 97.8447 45.4326C97.8447 46.7917 97.5843 47.988 97.0635 49.0215C96.5426 50.055 95.8021 50.8566 94.8418 51.4263C93.8896 51.9878 92.7747 52.2686 91.4971 52.2686ZM91.5215 49.7783C92.2051 49.7783 92.7829 49.5871 93.2549 49.2046C93.735 48.8221 94.0931 48.3013 94.3291 47.6421C94.5732 46.9829 94.6953 46.2383 94.6953 45.4082C94.6953 44.5863 94.5732 43.8457 94.3291 43.1865C94.0931 42.5192 93.735 41.9943 93.2549 41.6118C92.7829 41.2293 92.2051 41.0381 91.5215 41.0381C90.8216 41.0381 90.2275 41.2293 89.7393 41.6118C89.2591 41.9943 88.897 42.5151 88.6528 43.1743C88.4168 43.8335 88.2988 44.5781 88.2988 45.4082C88.2988 46.2383 88.4168 46.9829 88.6528 47.6421C88.897 48.3013 89.2591 48.8221 89.7393 49.2046C90.2275 49.5871 90.8216 49.7783 91.5215 49.7783ZM99.6367 38.7432H102.762V52H99.6367V38.7432ZM101.224 36.8633C100.906 36.8633 100.605 36.79 100.32 36.6436C100.044 36.4889 99.8239 36.2814 99.6611 36.021C99.4984 35.7524 99.417 35.4635 99.417 35.1543C99.417 34.8532 99.4984 34.5724 99.6611 34.312C99.8239 34.0516 100.044 33.8481 100.32 33.7017C100.605 33.547 100.906 33.4697 101.224 33.4697C101.549 33.4697 101.85 33.547 102.127 33.7017C102.404 33.8481 102.623 34.0516 102.786 34.312C102.949 34.5724 103.03 34.8532 103.03 35.1543C103.03 35.4635 102.949 35.7524 102.786 36.021C102.623 36.2814 102.404 36.4889 102.127 36.6436C101.85 36.79 101.549 36.8633 101.224 36.8633ZM108.24 52H105.115V38.7432H108.094V40.9893H108.265C108.574 40.2243 109.062 39.6302 109.729 39.207C110.405 38.7839 111.227 38.5723 112.195 38.5723C113.115 38.5723 113.917 38.7676 114.6 39.1582C115.292 39.5488 115.821 40.1185 116.187 40.8672C116.561 41.6159 116.744 42.5111 116.736 43.5527V52H113.636V44.041C113.636 43.1458 113.408 42.45 112.952 41.9536C112.496 41.4572 111.862 41.209 111.048 41.209C110.494 41.209 110.006 41.3311 109.583 41.5752C109.16 41.8112 108.83 42.1571 108.594 42.6128C108.358 43.0604 108.24 43.6016 108.24 44.2363V52ZM131.15 40.2812C131.028 39.5895 130.772 38.9914 130.381 38.4868C129.991 37.9823 129.494 37.5998 128.892 37.3394C128.298 37.0708 127.643 36.9365 126.927 36.9365C125.95 36.9365 125.092 37.1807 124.351 37.6689C123.611 38.1491 123.033 38.8571 122.618 39.793C122.203 40.7288 121.995 41.8519 121.995 43.1621C121.995 44.4805 122.203 45.6076 122.618 46.5435C123.033 47.4793 123.611 48.1873 124.351 48.6675C125.1 49.1476 125.958 49.3877 126.927 49.3877C127.627 49.3877 128.27 49.2616 128.855 49.0093C129.45 48.7489 129.946 48.3745 130.345 47.8862C130.743 47.3979 131.012 46.8161 131.15 46.1406H134.349C134.186 47.2799 133.775 48.3135 133.116 49.2412C132.465 50.1689 131.602 50.9014 130.528 51.4385C129.454 51.9756 128.237 52.2441 126.878 52.2441C125.324 52.2441 123.932 51.882 122.703 51.1577C121.482 50.4253 120.526 49.3755 119.834 48.0083C119.143 46.633 118.797 45.0176 118.797 43.1621C118.797 41.2985 119.143 39.6831 119.834 38.3159C120.534 36.9487 121.495 35.903 122.715 35.1787C123.944 34.4463 125.332 34.0801 126.878 34.0801C128.18 34.0801 129.364 34.3283 130.43 34.8247C131.496 35.313 132.371 36.0251 133.055 36.9609C133.738 37.8887 134.17 38.9954 134.349 40.2812H131.15ZM135.701 48.2646C135.701 46.8975 136.161 45.9128 137.081 45.3105C138.008 44.7002 139.192 44.3503 140.633 44.2607C142.041 44.1631 143.172 44.098 144.026 44.0654V43.0156C144.026 42.3564 143.819 41.8478 143.404 41.4897C142.989 41.1235 142.399 40.9404 141.634 40.9404C140.958 40.9404 140.405 41.0828 139.974 41.3677C139.542 41.6525 139.266 42.0391 139.144 42.5273H136.141C136.214 41.7705 136.482 41.0951 136.946 40.501C137.41 39.8988 138.049 39.4268 138.863 39.085C139.677 38.7432 140.625 38.5723 141.707 38.5723C142.635 38.5723 143.506 38.7188 144.319 39.0117C145.141 39.2965 145.813 39.7808 146.333 40.4644C146.862 41.1398 147.127 42.0309 147.127 43.1377V52H144.148V50.1689H144.051C143.725 50.7874 143.237 51.292 142.586 51.6826C141.935 52.0732 141.121 52.2686 140.145 52.2686C139.29 52.2686 138.525 52.1139 137.85 51.8047C137.182 51.4954 136.657 51.0397 136.275 50.4375C135.892 49.8353 135.701 49.111 135.701 48.2646ZM138.704 48.2402C138.704 48.8018 138.908 49.2331 139.314 49.5342C139.721 49.8271 140.267 49.9736 140.95 49.9736C141.561 49.9736 142.102 49.8516 142.574 49.6074C143.046 49.3633 143.408 49.0337 143.66 48.6187C143.921 48.1955 144.051 47.7357 144.051 47.2393L144.039 46.1528L141.121 46.3359C140.356 46.401 139.762 46.5923 139.339 46.9097C138.916 47.2271 138.704 47.6706 138.704 48.2402ZM156.048 41.1357H153.436V48.0205C153.436 48.6064 153.558 49.0093 153.802 49.229C154.054 49.4487 154.404 49.5586 154.852 49.5586C155.242 49.5586 155.698 49.5423 156.219 49.5098V52.0488C155.812 52.1302 155.226 52.1709 154.461 52.1709C153.655 52.1709 152.939 52.0407 152.312 51.7803C151.694 51.5117 151.206 51.1048 150.848 50.5596C150.498 50.0143 150.327 49.3389 150.335 48.5332V41.1357H148.431V38.7432H150.335V35.5693H153.436V38.7432H156.048V41.1357ZM163.455 52.2686C162.161 52.2686 161.034 51.9797 160.074 51.4019C159.122 50.8241 158.389 50.0184 157.876 48.9849C157.364 47.9513 157.107 46.7673 157.107 45.4326C157.107 44.0898 157.368 42.9017 157.889 41.8682C158.41 40.8265 159.146 40.0168 160.098 39.439C161.058 38.8612 162.177 38.5723 163.455 38.5723C164.521 38.5723 165.469 38.7676 166.299 39.1582C167.138 39.5488 167.801 40.1022 168.289 40.8184C168.785 41.5345 169.07 42.3646 169.144 43.3086H166.165C166.035 42.6413 165.738 42.1001 165.274 41.6851C164.81 41.27 164.212 41.0625 163.479 41.0625C162.837 41.0625 162.271 41.2375 161.783 41.5874C161.303 41.9292 160.928 42.4256 160.66 43.0767C160.391 43.7196 160.257 44.4805 160.257 45.3594C160.257 46.2627 160.387 47.0439 160.647 47.7031C160.916 48.3542 161.29 48.8547 161.771 49.2046C162.259 49.5545 162.828 49.7295 163.479 49.7295C164.179 49.7295 164.769 49.5342 165.25 49.1436C165.73 48.7529 166.035 48.1995 166.165 47.4834H169.144C169.062 48.4193 168.777 49.2493 168.289 49.9736C167.809 50.6979 167.154 51.2635 166.324 51.6704C165.494 52.0692 164.537 52.2686 163.455 52.2686ZM173.987 52H170.862V34.3242H173.914V40.9893H174.085C174.402 40.2161 174.887 39.6221 175.538 39.207C176.197 38.7839 177.023 38.5723 178.016 38.5723C178.935 38.5723 179.737 38.7676 180.42 39.1582C181.112 39.5407 181.645 40.1063 182.02 40.855C182.394 41.6037 182.581 42.5029 182.581 43.5527V52H179.48V44.041C179.48 43.1377 179.249 42.4419 178.785 41.9536C178.329 41.4572 177.69 41.209 176.868 41.209C176.307 41.209 175.806 41.3311 175.367 41.5752C174.935 41.8112 174.598 42.1571 174.354 42.6128C174.109 43.0685 173.987 43.6097 173.987 44.2363V52Z" fill="white"/>
</svg>
