<svg width="200" height="91" viewBox="0 0 200 91" fill="none" xmlns="http://www.w3.org/2000/svg">
<rect width="200" height="90.9091" rx="10" fill="#111111"/>
<path d="M40.9501 46.4711V66.9H20V46.4711H40.9501ZM63.9973 46.4711C63.9973 57.6412 54.8042 66.717 43.3932 66.8974L43.0472 66.9V46.4711H63.9973ZM40.9501 24V44.4263H20V24H40.9501ZM43.0472 24C54.5038 24 63.8096 32.9633 63.9973 44.089L64 44.4263H43.0499V24H43.0472Z" fill="#FE7701"/>
<path d="M71.6357 54V36.3242H77.7393C79.4889 36.3242 80.9985 36.6782 82.2681 37.3862C83.5376 38.0861 84.5101 39.0993 85.1855 40.4258C85.8691 41.7523 86.2109 43.3229 86.2109 45.1377C86.2109 46.9688 85.8691 48.5516 85.1855 49.8862C84.502 51.2127 83.5173 52.23 82.2314 52.938C80.9456 53.646 79.4157 54 77.6416 54H71.6357ZM77.4707 51.2412C79.318 51.2412 80.7056 50.7326 81.6333 49.7153C82.5692 48.6981 83.0371 47.1722 83.0371 45.1377C83.0371 43.1195 82.5773 41.6058 81.6577 40.5967C80.7381 39.5876 79.375 39.083 77.5684 39.083H74.8096V51.2412H77.4707ZM94.1309 54.2686C92.8125 54.2686 91.665 53.9919 90.6885 53.4385C89.7201 52.877 88.9754 52.0835 88.4546 51.0581C87.9419 50.0327 87.6855 48.8324 87.6855 47.457C87.6855 46.098 87.946 44.9017 88.4668 43.8682C88.9876 42.8265 89.7201 42.0168 90.6641 41.439C91.6162 40.8612 92.7148 40.5723 93.96 40.5723C95.083 40.5723 96.1003 40.8123 97.0117 41.2925C97.9313 41.7726 98.6597 42.5173 99.1968 43.5264C99.742 44.5273 100.015 45.7725 100.015 47.2617V48.2383H90.7617C90.7699 48.9788 90.9163 49.6217 91.2012 50.167C91.486 50.7041 91.8807 51.1151 92.3853 51.3999C92.8898 51.6847 93.4798 51.8271 94.1553 51.8271C94.8145 51.8271 95.376 51.701 95.8398 51.4487C96.3037 51.1965 96.6374 50.8669 96.8408 50.46H99.8926C99.7054 51.2249 99.3514 51.8963 98.8306 52.4741C98.3097 53.0438 97.6465 53.4873 96.8408 53.8047C96.0433 54.1139 95.14 54.2686 94.1309 54.2686ZM97.0361 46.1143C97.028 45.512 96.8978 44.9749 96.6455 44.5029C96.3932 44.0309 96.0392 43.6606 95.5835 43.3921C95.1278 43.1235 94.6029 42.9893 94.0088 42.9893C93.3984 42.9893 92.8532 43.1317 92.373 43.4165C91.901 43.6932 91.5267 44.0716 91.25 44.5518C90.9733 45.0238 90.8146 45.5446 90.7739 46.1143H97.0361ZM107.69 54.2686C106.372 54.2686 105.225 53.9919 104.248 53.4385C103.28 52.877 102.535 52.0835 102.014 51.0581C101.501 50.0327 101.245 48.8324 101.245 47.457C101.245 46.098 101.506 44.9017 102.026 43.8682C102.547 42.8265 103.28 42.0168 104.224 41.439C105.176 40.8612 106.274 40.5723 107.52 40.5723C108.643 40.5723 109.66 40.8123 110.571 41.2925C111.491 41.7726 112.219 42.5173 112.756 43.5264C113.302 44.5273 113.574 45.7725 113.574 47.2617V48.2383H104.321C104.329 48.9788 104.476 49.6217 104.761 50.167C105.046 50.7041 105.44 51.1151 105.945 51.3999C106.449 51.6847 107.039 51.8271 107.715 51.8271C108.374 51.8271 108.936 51.701 109.399 51.4487C109.863 51.1965 110.197 50.8669 110.4 50.46H113.452C113.265 51.2249 112.911 51.8963 112.39 52.4741C111.869 53.0438 111.206 53.4873 110.4 53.8047C109.603 54.1139 108.7 54.2686 107.69 54.2686ZM110.596 46.1143C110.588 45.512 110.457 44.9749 110.205 44.5029C109.953 44.0309 109.599 43.6606 109.143 43.3921C108.687 43.1235 108.162 42.9893 107.568 42.9893C106.958 42.9893 106.413 43.1317 105.933 43.4165C105.461 43.6932 105.086 44.0716 104.81 44.5518C104.533 45.0238 104.374 45.5446 104.333 46.1143H110.596ZM115.366 40.7432H118.418V42.916H118.613C118.947 42.265 119.407 41.7116 119.993 41.2559C120.579 40.8001 121.388 40.5723 122.422 40.5723C123.455 40.5723 124.383 40.8368 125.205 41.3657C126.035 41.8947 126.69 42.6719 127.17 43.6973C127.651 44.7227 127.891 45.9515 127.891 47.3838C127.891 48.8079 127.655 50.0368 127.183 51.0703C126.711 52.1038 126.06 52.8932 125.229 53.4385C124.408 53.9756 123.472 54.2441 122.422 54.2441C120.664 54.2441 119.395 53.4629 118.613 51.9004H118.491V58.9805H115.366V40.7432ZM118.418 47.3594C118.418 48.222 118.54 48.9788 118.784 49.6299C119.028 50.2809 119.386 50.7855 119.858 51.1436C120.33 51.5016 120.9 51.6807 121.567 51.6807C122.235 51.6807 122.804 51.4976 123.276 51.1313C123.748 50.7651 124.106 50.2565 124.351 49.6055C124.595 48.9544 124.717 48.2057 124.717 47.3594C124.717 46.5293 124.595 45.7928 124.351 45.1499C124.115 44.507 123.761 44.0065 123.289 43.6484C122.817 43.2904 122.243 43.1113 121.567 43.1113C120.9 43.1113 120.33 43.2863 119.858 43.6362C119.386 43.9862 119.028 44.4826 118.784 45.1255C118.54 45.7603 118.418 46.5049 118.418 47.3594ZM141.768 42.2812C141.646 41.5895 141.389 40.9914 140.999 40.4868C140.608 39.9823 140.111 39.5998 139.509 39.3394C138.915 39.0708 138.26 38.9365 137.544 38.9365C136.567 38.9365 135.709 39.1807 134.968 39.6689C134.228 40.1491 133.65 40.8571 133.235 41.793C132.82 42.7288 132.612 43.8519 132.612 45.1621C132.612 46.4805 132.82 47.6076 133.235 48.5435C133.65 49.4793 134.228 50.1873 134.968 50.6675C135.717 51.1476 136.576 51.3877 137.544 51.3877C138.244 51.3877 138.887 51.2616 139.473 51.0093C140.067 50.7489 140.563 50.3745 140.962 49.8862C141.361 49.3979 141.629 48.8161 141.768 48.1406H144.966C144.803 49.2799 144.392 50.3135 143.733 51.2412C143.082 52.1689 142.219 52.9014 141.145 53.4385C140.071 53.9756 138.854 54.2441 137.495 54.2441C135.941 54.2441 134.549 53.882 133.32 53.1577C132.1 52.4253 131.143 51.3755 130.452 50.0083C129.76 48.633 129.414 47.0176 129.414 45.1621C129.414 43.2985 129.76 41.6831 130.452 40.3159C131.152 38.9487 132.112 37.903 133.333 37.1787C134.561 36.4463 135.949 36.0801 137.495 36.0801C138.797 36.0801 139.981 36.3283 141.047 36.8247C142.113 37.313 142.988 38.0251 143.672 38.9609C144.355 39.8887 144.787 40.9954 144.966 42.2812H141.768ZM152.715 54.2686C151.445 54.2686 150.33 53.9837 149.37 53.4141C148.41 52.8444 147.669 52.0469 147.148 51.0215C146.628 49.988 146.367 48.7917 146.367 47.4326C146.367 46.0654 146.628 44.8651 147.148 43.8315C147.669 42.798 148.41 41.9964 149.37 41.4268C150.33 40.8571 151.445 40.5723 152.715 40.5723C153.993 40.5723 155.111 40.8571 156.072 41.4268C157.032 41.9964 157.769 42.798 158.281 43.8315C158.802 44.8651 159.062 46.0654 159.062 47.4326C159.062 48.7917 158.802 49.988 158.281 51.0215C157.76 52.055 157.02 52.8566 156.06 53.4263C155.107 53.9878 153.993 54.2686 152.715 54.2686ZM152.739 51.7783C153.423 51.7783 154.001 51.5871 154.473 51.2046C154.953 50.8221 155.311 50.3013 155.547 49.6421C155.791 48.9829 155.913 48.2383 155.913 47.4082C155.913 46.5863 155.791 45.8457 155.547 45.1865C155.311 44.5192 154.953 43.9943 154.473 43.6118C154.001 43.2293 153.423 43.0381 152.739 43.0381C152.039 43.0381 151.445 43.2293 150.957 43.6118C150.477 43.9943 150.115 44.5151 149.871 45.1743C149.635 45.8335 149.517 46.5781 149.517 47.4082C149.517 48.2383 149.635 48.9829 149.871 49.6421C150.115 50.3013 150.477 50.8221 150.957 51.2046C151.445 51.5871 152.039 51.7783 152.739 51.7783ZM160.854 40.7432H163.979V54H160.854V40.7432ZM162.441 38.8633C162.124 38.8633 161.823 38.79 161.538 38.6436C161.261 38.4889 161.042 38.2814 160.879 38.021C160.716 37.7524 160.635 37.4635 160.635 37.1543C160.635 36.8532 160.716 36.5724 160.879 36.312C161.042 36.0516 161.261 35.8481 161.538 35.7017C161.823 35.547 162.124 35.4697 162.441 35.4697C162.767 35.4697 163.068 35.547 163.345 35.7017C163.621 35.8481 163.841 36.0516 164.004 36.312C164.167 36.5724 164.248 36.8532 164.248 37.1543C164.248 37.4635 164.167 37.7524 164.004 38.021C163.841 38.2814 163.621 38.4889 163.345 38.6436C163.068 38.79 162.767 38.8633 162.441 38.8633ZM169.458 54H166.333V40.7432H169.312V42.9893H169.482C169.792 42.2243 170.28 41.6302 170.947 41.207C171.623 40.7839 172.445 40.5723 173.413 40.5723C174.333 40.5723 175.134 40.7676 175.818 41.1582C176.51 41.5488 177.039 42.1185 177.405 42.8672C177.779 43.6159 177.962 44.5111 177.954 45.5527V54H174.854V46.041C174.854 45.1458 174.626 44.45 174.17 43.9536C173.714 43.4572 173.079 43.209 172.266 43.209C171.712 43.209 171.224 43.3311 170.801 43.5752C170.378 43.8112 170.048 44.1571 169.812 44.6128C169.576 45.0604 169.458 45.6016 169.458 46.2363V54Z" fill="white"/>
</svg>
