<svg width="32" height="35" viewBox="0 0 32 35" fill="none" xmlns="http://www.w3.org/2000/svg">
<path d="M30.4983 21.9655C30.4983 20.8843 29.8412 19.9524 28.9067 19.544C30.2104 19.3843 31.2261 18.2664 31.2261 16.9235C31.2261 15.4705 30.0376 14.2794 28.582 14.2794H18.9849C18.9849 14.2794 20.6551 11.4233 21.2624 7.47288C21.8698 3.5251 20.8383 0.365304 18.3461 0.00141708C18.3461 0.00141708 14.8224 -0.242047 15.5502 5.65344C15.5502 5.65344 11.2673 11.6484 7.46875 16.591V30.3218C7.46875 30.3218 7.47922 33.2382 7.56038 33.2382H27.548C28.7339 33.2382 29.7051 32.2669 29.7051 31.081C29.7051 29.8951 28.7339 28.9239 27.548 28.9239H27.9433C29.1292 28.9239 30.1004 27.9526 30.1004 26.7667C30.1004 25.5808 29.1292 24.6096 27.9433 24.6096H27.8516C29.3098 24.6096 30.4983 23.4185 30.4983 21.9655Z" fill="#FFD3BC"/>
<path d="M6.97144 15.8579H0.95553C0.429334 15.8579 0 16.2899 0 16.8161V34.0418C0 34.568 0.429334 34.9999 0.958148 34.9999H6.97406C7.50026 34.9999 7.93221 34.5706 7.93221 34.0418V16.8161C7.92959 16.2899 7.49764 15.8579 6.97144 15.8579Z" fill="url(#paint0_linear_103_7143)"/>
<path d="M3.50777 30.6857C4.46346 30.6857 5.2382 29.911 5.2382 28.9553C5.2382 27.9996 4.46346 27.2249 3.50777 27.2249C2.55208 27.2249 1.77734 27.9996 1.77734 28.9553C1.77734 29.911 2.55208 30.6857 3.50777 30.6857Z" fill="white"/>
<path d="M15.5685 5.64305C15.5685 5.64305 17.2753 3.15082 16.4873 0.786865C16.4873 0.786865 14.9114 1.96753 15.5685 5.64305Z" fill="#EDAD91"/>
<defs>
<linearGradient id="paint0_linear_103_7143" x1="3.96401" y1="35.9639" x2="3.96401" y2="16.2436" gradientUnits="userSpaceOnUse">
<stop stop-color="#0C4175"/>
<stop offset="1" stop-color="#23599A"/>
</linearGradient>
</defs>
</svg>
