<svg width="45" height="21" viewBox="0 0 45 21" fill="none" xmlns="http://www.w3.org/2000/svg">
<path d="M40.5385 3.1374C37.9896 0.984846 34.4646 0.27524 31.3036 1.33765C29.8459 1.81589 28.4917 2.69665 27.465 3.81827L26.3538 2.70714C25.9563 2.30961 25.2754 2.56672 25.2402 3.12791L25.0051 6.86284C24.9804 7.25537 25.3054 7.58044 25.698 7.5557L29.4329 7.32058C29.9941 7.28535 30.2512 6.60448 29.8537 6.20695L28.8452 5.19851C29.4774 4.70378 30.1697 4.3105 30.8998 4.0389C31.3493 3.871 31.8113 3.75031 32.2811 3.67635C32.3263 3.66986 32.4737 3.64762 32.5149 3.64137C32.5824 3.63263 32.6748 3.62638 32.75 3.61764L32.828 3.60939L32.867 3.60539L32.9062 3.60339L33.0631 3.59515C35.2124 3.47347 37.3665 4.37946 38.742 6.0238C40.4083 7.96822 40.8096 10.7784 39.7112 13.0954C38.1178 16.4955 33.9559 17.7958 30.7457 15.8266C30.3204 15.5638 29.9289 15.2422 29.5771 14.8869C25.9083 11.1275 22.2011 7.3748 18.4705 3.67685C18.3785 3.58715 17.883 3.09243 17.8033 3.01722C13.9187 -0.84339 7.54678 -1.02929 3.46754 2.63318C-1.17638 6.74065 -1.17563 14.0474 3.58972 18.0524C5.84472 19.9471 8.89528 20.7374 11.7714 20.135C13.7106 19.7369 15.5104 18.7043 16.8004 17.2223L17.8193 18.2413C18.2169 18.6388 18.8977 18.3817 18.933 17.8205L19.1681 14.0856C19.1928 13.693 18.8677 13.368 18.4752 13.3927L14.7403 13.6278C14.1791 13.6631 13.922 14.3439 14.3195 14.7415L15.4282 15.8501C14.0994 16.8803 12.4935 17.4615 10.8232 17.4497C8.85056 17.4522 6.92587 16.5947 5.64308 15.1143C5.10163 14.4956 4.67712 13.7807 4.39727 13.0104C4.0757 12.1177 3.95127 11.1575 4.03448 10.214C4.10244 9.47389 4.29508 8.73455 4.61515 8.06392C5.99539 5.11356 9.403 3.70184 12.4501 4.87719C13.1659 5.14954 13.8188 5.56406 14.3832 6.08077C14.4689 6.16572 14.5484 6.23818 14.6376 6.32763C17.9665 9.69127 21.3346 13.0367 24.7158 16.3458C25.134 16.7554 26.0413 17.6441 26.4498 18.0396C29.8132 21.3528 35.1542 21.9602 39.17 19.4803C41.2691 18.1966 42.8904 16.1497 43.614 13.7955C44.8204 9.96711 43.6153 5.71797 40.5385 3.1374Z" fill="#FF6600"/>
</svg>
