<?xml version="1.0" encoding="iso-8859-1"?>
<!-- Uploaded to: SVG Repo, www.svgrepo.com, Generator: SVG Repo Mixer Tools -->
<svg height="800px" width="800px" version="1.1" id="Layer_1" xmlns="http://www.w3.org/2000/svg" xmlns:xlink="http://www.w3.org/1999/xlink" 
	 viewBox="0 0 512 512" xml:space="preserve">
<path style="fill:#BDBDBD;" d="M400.981,221.867h-25.6c-2.901-99.584-55.296-179.2-119.381-179.2s-116.48,79.616-119.296,179.2
	h-25.6c3.072-113.664,66.816-204.8,144.896-204.8S397.909,108.203,400.981,221.867z"/>
<path style="fill:#FFC107;" d="M76.8,238.933v256h358.4v-256H76.8z M281.6,371.456V435.2c0,4.693-3.84,8.533-8.533,8.533h-34.133
	c-4.693,0-8.533-3.84-8.533-8.533v-63.659c-15.531-11.691-22.101-33.365-12.8-52.907c5.461-11.435,16.128-20.053,28.587-22.869
	c27.733-6.229,52.48,14.848,52.48,41.557C298.667,350.805,292.267,363.52,281.6,371.456z"/>
<path style="fill:#717272;" d="M281.6,337.323c0,9.216-4.949,17.749-12.971,22.272c-2.56,1.536-4.096,4.352-4.096,7.339v59.733
	h-17.067v-59.733c0-3.072-1.621-5.888-4.267-7.424c-11.179-6.4-16.384-20.736-10.155-33.536c3.328-6.741,9.728-11.861,17.067-13.568
	C266.752,308.651,281.6,321.28,281.6,337.323z"/>
<path d="M435.2,221.867h-17.237C414.805,98.731,343.381,0,256,0S97.195,98.731,94.037,221.867H76.8
	c-9.387,0-17.067,7.68-17.067,17.067v256c0,9.387,7.68,17.067,17.067,17.067h358.4c9.387,0,17.067-7.68,17.067-17.067v-256
	C452.267,229.547,444.587,221.867,435.2,221.867z M256,17.067c78.08,0,141.909,91.136,144.981,204.8h-25.6
	c-2.901-99.584-55.296-179.2-119.381-179.2s-116.48,79.616-119.296,179.2h-25.6C114.176,108.203,177.92,17.067,256,17.067z
	 M358.144,221.867H153.856C156.587,131.755,201.301,59.733,256,59.733S355.413,131.755,358.144,221.867z M435.2,494.933H76.8v-256
	h358.4V494.933z"/>
<path d="M246.187,295.765c-12.459,2.816-23.125,11.435-28.587,22.869c-9.301,19.541-2.731,41.216,12.8,52.907V435.2
	c0,4.693,3.84,8.533,8.533,8.533h34.133c4.693,0,8.533-3.84,8.533-8.533v-63.744c10.667-7.936,17.067-20.651,17.067-34.133
	C298.667,310.613,273.92,289.536,246.187,295.765z M268.629,359.595c-2.56,1.536-4.096,4.352-4.096,7.339v59.733h-17.067v-59.733
	c0-3.072-1.621-5.888-4.267-7.424c-11.179-6.4-16.384-20.736-10.155-33.536c3.328-6.741,9.728-11.861,17.067-13.568
	c16.64-3.755,31.488,8.875,31.488,24.917C281.6,346.539,276.651,355.072,268.629,359.595z"/>
<path style="fill:#555656;" d="M269.21,315.58c2.364,3.883,3.857,8.346,3.857,13.21c0,9.216-4.949,17.749-12.971,22.272
	c-2.56,1.536-4.096,4.352-4.096,7.339v59.733h-8.533v8.533h17.067v-59.733c0-2.987,1.536-5.803,4.096-7.339
	c8.021-4.523,12.971-13.056,12.971-22.272C281.6,328.073,276.582,320.077,269.21,315.58z"/>
<path style="fill:#717272;" d="M234.667,350.976c-0.154-0.085-0.282-0.213-0.435-0.307c1.203,1.963,2.645,3.755,4.343,5.342
	C237.969,353.92,236.604,352.102,234.667,350.976z"/>
<polygon style="fill:#F9A825;" points="409.6,238.933 409.6,469.333 76.8,469.333 76.8,494.933 435.2,494.933 435.2,238.933 "/>
</svg>