<svg width="55" height="55" viewBox="0 0 55 55" fill="none" xmlns="http://www.w3.org/2000/svg">
<circle cx="27.5" cy="27.5" r="27.5" fill="#FF6900"/>
<path d="M26.875 42.3711C23.6068 42.2018 21.0352 41.3034 19.1602 39.6758C17.2982 38.0352 16.3411 35.7109 16.2891 32.7031H22.6953C22.7604 33.888 23.1576 34.832 23.8867 35.5352C24.6289 36.2253 25.625 36.6419 26.875 36.7852V30.3594L24.8828 29.8906C19.6484 28.6797 17.0312 26.0755 17.0312 22.0781C17.0182 20.4766 17.4284 19.0443 18.2617 17.7812C19.0951 16.5052 20.2539 15.4831 21.7383 14.7148C23.2357 13.9466 24.9479 13.4974 26.875 13.3672V10.1641H29.1406V13.3672C31.0807 13.4844 32.7734 13.9271 34.2188 14.6953C35.6771 15.4505 36.8034 16.4661 37.5977 17.7422C38.3919 19.0182 38.8021 20.4766 38.8281 22.1172H32.4219C32.3568 21.2318 32.0443 20.5156 31.4844 19.9688C30.9245 19.4089 30.1432 19.0573 29.1406 18.9141V25.0078L30.5859 25.3594C33.3724 25.9844 35.5013 26.9935 36.9727 28.3867C38.457 29.7799 39.2057 31.5833 39.2188 33.7969C39.2057 35.4766 38.8021 36.9414 38.0078 38.1914C37.2135 39.4284 36.0612 40.4049 34.5508 41.1211C33.0404 41.8372 31.237 42.2539 29.1406 42.3711V45.5547H26.875V42.3711ZM23.9062 21.6875C23.9062 22.3516 24.1602 22.9115 24.668 23.3672C25.1888 23.8099 25.9245 24.1745 26.875 24.4609V18.9141C25.8984 19.0703 25.1562 19.3958 24.6484 19.8906C24.1536 20.3724 23.9062 20.9714 23.9062 21.6875ZM29.1406 36.7656C30.1693 36.6094 30.9701 36.2708 31.543 35.75C32.1289 35.2161 32.4349 34.5651 32.4609 33.7969C32.4479 33.1068 32.1745 32.5404 31.6406 32.0977C31.1068 31.6419 30.2734 31.2513 29.1406 30.9258V36.7656Z" fill="white"/>
</svg>
