<svg width="41" height="29" viewBox="0 0 41 29" fill="none" xmlns="http://www.w3.org/2000/svg">
<path d="M5.03125 0.4375C2.71797 0.4375 0.8125 2.34297 0.8125 4.65625V24.3438C0.8125 26.657 2.71797 28.5625 5.03125 28.5625H35.9688C38.282 28.5625 40.1875 26.657 40.1875 24.3438V4.65625C40.1875 2.34297 38.282 0.4375 35.9688 0.4375H5.03125ZM5.03125 3.25H35.9688C36.7647 3.25 37.375 3.86031 37.375 4.65625V24.3438C37.375 25.1397 36.7647 25.75 35.9688 25.75H5.03125C4.23531 25.75 3.625 25.1397 3.625 24.3438V4.65625C3.625 3.86031 4.23531 3.25 5.03125 3.25ZM14.2048 6.0625L14.0071 6.09546C13.3883 6.1728 12.7883 6.40523 12.2905 6.7821C12.1794 6.8482 12.083 6.93796 11.9719 7.02655C11.9606 7.00405 11.9499 6.98313 11.9499 6.96063C11.9274 6.83829 11.9161 6.70529 11.895 6.58435C11.8612 6.38466 11.7513 6.28497 11.5516 6.28497H11.0298C10.7106 6.28216 10.6562 6.35047 10.6562 6.66125V16.2578C10.6675 16.4012 10.755 16.4773 10.876 16.4885H11.84C11.9722 16.4885 12.0485 16.4012 12.0598 16.2578C12.071 16.2142 12.0707 16.1696 12.0707 16.126V12.8521C12.1143 12.8956 12.1471 12.9202 12.1696 12.9427C12.9768 13.6177 13.9063 13.8373 14.9244 13.6376C15.854 13.4491 16.4955 12.8866 16.9047 12.0583C17.2253 11.4283 17.3576 10.7521 17.3689 10.056C17.3914 9.29103 17.3242 8.52792 17.0036 7.80933C16.6281 6.9248 15.9852 6.33769 15.0233 6.13941C14.8799 6.10566 14.726 6.09599 14.5811 6.07348C14.4489 6.06224 14.3272 6.0625 14.2048 6.0625ZM21.2388 6.0625C21.1952 6.07375 21.1506 6.08447 21.107 6.08447C20.664 6.10697 20.2341 6.16289 19.8024 6.27399C19.5253 6.34008 19.2607 6.43808 18.9949 6.52667C18.8289 6.58152 18.7504 6.70379 18.7504 6.88098C18.7617 7.02442 18.7504 7.17974 18.7504 7.32318C18.7617 7.54396 18.8513 7.60191 19.0608 7.54566C19.4152 7.45706 19.7666 7.35632 20.121 7.29022C20.6736 7.19038 21.238 7.14696 21.8019 7.2243C22.1 7.27915 22.377 7.35704 22.5654 7.61157C22.7314 7.8211 22.7986 8.08737 22.8099 8.35315C22.8211 8.72862 22.8209 9.10378 22.8209 9.47925C22.8209 9.50175 22.8211 9.52293 22.8099 9.53418H22.7549C22.2796 9.41324 21.7913 9.3468 21.3047 9.31445C20.7957 9.29195 20.2889 9.31305 19.8024 9.49023C19.216 9.68992 18.7404 10.0439 18.4648 10.6191C18.2553 11.0606 18.2229 11.5253 18.289 12.0006C18.3888 12.6419 18.6974 13.1277 19.2613 13.4371C19.8027 13.7352 20.3775 13.7701 20.9752 13.6815C21.6614 13.5817 22.2687 13.295 22.7989 12.8521C22.8214 12.8296 22.8423 12.8182 22.8648 12.7971C22.8986 12.9743 22.9189 13.1396 22.9527 13.2943C22.9752 13.4377 23.065 13.5274 23.1971 13.5387H23.9387C24.0498 13.5387 24.1475 13.4372 24.1475 13.3162C24.1587 13.2825 24.1584 13.2404 24.1584 13.1954V8.39435C24.1556 8.20591 24.1441 8.00875 24.1118 7.82031C24.0232 7.23391 23.7795 6.74816 23.2493 6.43878C22.9512 6.26159 22.6204 6.17228 22.2661 6.11743C22.1001 6.09493 21.9458 6.08359 21.7799 6.0625H21.2388ZM30.6816 6.0625C30.5269 6.05125 30.3821 6.14977 30.3273 6.29321C30.3048 6.36071 30.2839 6.41663 30.2614 6.48273L28.6793 11.0063C28.5682 11.327 28.4471 11.6572 28.336 12.0116C28.3149 11.9553 28.306 11.9355 28.2948 11.9017C27.7098 10.2874 27.1344 8.67114 26.548 7.05676C26.4608 6.79239 26.3594 6.5395 26.2596 6.28497C26.216 6.16404 26.1174 6.07623 25.9739 6.07623C25.6308 6.06498 25.2874 6.06525 24.933 6.06525C24.8233 6.06525 24.7677 6.16289 24.7902 6.27399C24.8127 6.36258 24.8443 6.4628 24.8781 6.55139C25.7626 8.73952 26.6602 10.9287 27.556 13.1295C27.6333 13.3165 27.6446 13.4711 27.556 13.6595C27.4125 13.9914 27.2904 14.3329 27.1357 14.6648C27.0021 14.9629 26.781 15.1859 26.4491 15.2745C26.2283 15.3294 25.9835 15.3495 25.7515 15.3157C25.6404 15.3059 25.5302 15.2858 25.4191 15.2745C25.2644 15.2633 25.1887 15.3283 25.1774 15.4943V15.9365C25.1887 16.191 25.2662 16.3021 25.5208 16.3457C25.764 16.3907 26.0185 16.4251 26.2843 16.4363C27.0577 16.4476 27.6661 16.1363 28.0641 15.4613C28.23 15.1955 28.3634 14.9187 28.4843 14.6318C29.5559 11.9234 30.6169 9.22439 31.6786 6.5047C31.7109 6.42736 31.7333 6.35159 31.7445 6.263C31.767 6.13081 31.7021 6.06391 31.577 6.0625H30.6816ZM14.1966 7.21332C14.8716 7.26816 15.4231 7.59867 15.71 8.38336C15.8871 8.86992 15.9324 9.36985 15.9324 9.8775C15.9324 10.3542 15.8973 10.8048 15.7539 11.259C15.4445 12.2209 14.7383 12.5963 13.8313 12.5527C13.19 12.5189 12.6485 12.2767 12.1394 11.9237C12.0846 11.89 12.0485 11.8357 12.0598 11.7809V7.96588C12.0485 7.89979 12.0846 7.84308 12.1394 7.80933C12.7582 7.37761 13.4443 7.15847 14.1966 7.21332ZM21.0328 10.2785C21.2223 10.262 21.4136 10.2649 21.6014 10.2867C21.9768 10.3205 22.3548 10.3857 22.7302 10.4406C22.8076 10.4518 22.8291 10.4857 22.8291 10.5532C22.8193 10.7739 22.8291 10.9833 22.8291 11.2041C22.8291 11.4249 22.8181 11.6233 22.8181 11.8441C22.8294 11.8989 22.7958 11.9435 22.7522 11.9759C22.2431 12.3401 21.6903 12.5841 21.0603 12.6516C20.8058 12.6741 20.551 12.6745 20.3077 12.5746C20.0307 12.4748 19.822 12.2433 19.7447 11.9677C19.6561 11.6808 19.6536 11.3811 19.731 11.0942C19.8519 10.7188 20.1182 10.5066 20.4725 10.3856C20.6546 10.3301 20.8433 10.295 21.0328 10.2785ZM32.4971 16.6066C31.5127 16.6203 30.3493 16.8393 29.4676 17.4581C29.1948 17.6465 29.2449 17.9107 29.5472 17.8755C30.5386 17.7574 32.7446 17.4888 33.1398 17.9937C33.5349 18.4985 32.7007 20.577 32.3323 21.5065C32.217 21.7836 32.4595 21.8987 32.7141 21.6878C34.3636 20.3055 34.7929 17.4101 34.4554 16.9939C34.2866 16.7858 33.4814 16.5929 32.4971 16.6066ZM6.64075 17.1587C6.43601 17.1857 6.34699 17.4366 6.5611 17.6339C10.2342 20.947 15.0852 22.9375 20.4725 22.9375C24.3158 22.9375 28.7774 21.7301 31.8571 19.4576C32.3662 19.0807 31.9339 18.5157 31.4122 18.7407C27.9584 20.206 24.2069 20.9105 20.7939 20.9105C15.7356 20.9105 10.8384 19.524 6.87695 17.2164C6.79012 17.1657 6.70899 17.1497 6.64075 17.1587Z" fill="#FF6900"/>
</svg>
