<svg width="185" height="148" viewBox="0 0 185 148" fill="none" xmlns="http://www.w3.org/2000/svg">
<path d="M166.401 77.0579C176.435 77.0579 184.57 66.9794 184.57 54.547C184.57 42.1146 176.435 32.0361 166.401 32.0361C156.366 32.0361 148.231 42.1146 148.231 54.547C148.231 66.9794 156.366 77.0579 166.401 77.0579Z" fill="#D8DEE8"/>
<path d="M110.868 0.00136052H76.6711C41.6063 0.00136052 13.1816 25.0621 13.1816 55.9741C13.1816 72.4706 28.3491 85.8423 47.0609 85.8423H140.481C159.192 85.8423 174.361 72.4706 174.361 55.9741C174.361 25.0607 145.934 0 110.869 0L110.868 0.00136052Z" fill="#FF6900"/>
<path d="M104.863 147.048H82.6764C59.9268 147.048 41.4863 130.79 41.4863 110.735C41.4863 100.033 51.3271 91.3569 63.4666 91.3569H124.075C136.214 91.3569 146.055 100.033 146.055 110.735C146.055 130.791 127.613 147.05 104.865 147.05L104.863 147.048Z" fill="#FF6900"/>
<path d="M141.909 73.7686H76.9036C68.0943 73.7686 60.8667 67.8154 60.8667 60.4717V49.2108C60.8667 41.8671 68.0943 36.1177 76.9036 36.3651L141.909 38.1932C149.776 38.4148 156.083 44.1234 156.083 50.9479V61.4122C156.083 68.2367 149.778 73.7673 141.909 73.7673V73.7686Z" fill="#FFBB00"/>
<path d="M97.7308 54.2455C97.7308 59.1495 92.9946 63.0721 87.1068 63.0068C81.165 62.9402 76.3086 58.8464 76.3086 53.8622C76.3086 48.8781 81.165 44.9568 87.1068 45.1036C92.9961 45.249 97.7308 49.3416 97.7308 54.2455Z" fill="white"/>
<path d="M141.661 55.032C141.661 59.7714 137.239 63.5649 131.74 63.5038C126.194 63.4426 121.663 59.4887 121.663 54.6745C121.663 49.8602 126.194 46.0695 131.74 46.2067C137.238 46.3427 141.661 50.2938 141.661 55.0333V55.032Z" fill="white"/>
<g style="mix-blend-mode:soft-light" opacity="0.3">
<path d="M117.359 77.9918C107.691 67.9773 111.987 59.969 99.3483 46.3975C81.9577 27.7249 61.6703 29.8371 57.0235 17.1735C55.7362 13.6641 55.5882 8.84714 59.0416 2.18848C32.5534 8.92462 13.1802 30.4528 13.1802 55.9743C13.1802 72.4708 28.3476 85.8425 47.0594 85.8425H128.474C123.598 83.4993 120.034 80.7618 117.36 77.9918H117.359Z" fill="white"/>
</g>
<path d="M22.3166 76.9017C32.3511 76.9017 40.4857 66.8232 40.4857 54.3908C40.4857 41.9584 32.3511 31.8799 22.3166 31.8799C12.2821 31.8799 4.14746 41.9584 4.14746 54.3908C4.14746 66.8232 12.2821 76.9017 22.3166 76.9017Z" fill="#D8DEE8"/>
<path d="M7.94447 64.2343C12.3321 64.2343 15.8889 59.8274 15.8889 54.3911C15.8889 48.9548 12.3321 44.5479 7.94447 44.5479C3.55686 44.5479 0 48.9548 0 54.3911C0 59.8274 3.55686 64.2343 7.94447 64.2343Z" fill="#BFC8D6"/>
<g style="mix-blend-mode:multiply" opacity="0.4">
<path d="M110.327 127.057C107.283 114.455 73.6138 114.759 72.698 106.521C71.9919 100.171 91.3235 93.8837 93.7517 93.094C95.8284 92.4185 97.8912 91.8462 99.9324 91.3569H63.4646C51.3252 91.3569 41.4844 100.033 41.4844 110.735C41.4844 130.791 59.9264 147.05 82.6744 147.05H104.861C106.993 147.05 109.087 146.907 111.131 146.631C109.201 144.522 107.942 142.214 107.638 139.695C106.963 134.113 111.505 131.941 110.325 127.057H110.327Z" fill="#D8DEE8"/>
</g>
<path d="M94.316 96.1763C113.668 96.1763 129.356 94.5016 129.356 92.4358C129.356 90.37 113.668 88.6953 94.316 88.6953C74.9639 88.6953 59.2759 90.37 59.2759 92.4358C59.2759 94.5016 74.9639 96.1763 94.316 96.1763Z" fill="#D8DEE8"/>
</svg>
