<svg width="50" height="79" viewBox="0 0 50 79" fill="none" xmlns="http://www.w3.org/2000/svg">
<path d="M41.8787 42.5601V71.6999C41.8787 73.6045 39.7692 74.7514 38.163 73.7245L31.0273 69.137L25.0004 65.2634L18.9705 69.1399L11.8348 73.7274C10.2315 74.7514 8.12207 73.6075 8.12207 71.7028V42.563H41.8787V42.5601Z" fill="#F41943"/>
<path d="M31.027 42.5601V69.1399L25.0001 65.2634L18.9731 69.1399V42.5601H31.027Z" fill="#EBF2F2"/>
<path d="M41.8787 42.5601V46.3166C39.5586 47.917 35.764 50.0966 31.0273 51.2494V42.5601H41.8787Z" fill="#C6123D"/>
<path d="M31.027 42.5601V51.2494C29.0375 51.735 26.8813 52.0364 24.6022 52.0364C22.6127 52.0364 20.7286 51.8023 18.9731 51.4161V42.563H31.027V42.5601Z" fill="#C3DBDA"/>
<path d="M18.9734 42.5596V51.4127C14.304 50.3799 10.5416 48.2647 8.125 46.5912V42.5566H18.9734V42.5596Z" fill="#C6123D"/>
<path d="M25 50C38.8071 50 50 38.8071 50 25C50 11.1929 38.8071 0 25 0C11.1929 0 0 11.1929 0 25C0 38.8071 11.1929 50 25 50Z" fill="#EBF2F2"/>
<path d="M25.0006 47.7766C12.4406 47.7766 2.22412 37.5601 2.22412 25.0001C2.22412 12.4401 12.4406 2.22363 25.0006 2.22363C37.5606 2.22363 47.7771 12.4401 47.7771 25.0001C47.7771 37.5601 37.5606 47.7766 25.0006 47.7766Z" fill="#C3DBDA"/>
<path d="M46.3844 25.0001C46.3844 36.7906 36.794 46.3839 25.0035 46.3839C21.6594 46.3839 18.4938 45.6115 15.6735 44.2394C12.7302 42.8058 10.1644 40.7169 8.16322 38.1657C7.25041 37.0012 6.45462 35.7373 5.79634 34.3944C4.40371 31.5595 3.61963 28.3675 3.61963 25.0001C3.61963 22.5015 4.0497 20.1054 4.83964 17.876C7.21822 11.1586 12.8677 5.97724 19.8601 4.24524C21.5073 3.83564 23.2305 3.61914 25.0035 3.61914C28.9473 3.61914 32.6454 4.69287 35.8197 6.55946C37.2358 7.39328 38.5465 8.38509 39.7314 9.51148C41.9637 11.6355 43.7396 14.2365 44.8923 17.1504C45.8519 19.5817 46.3844 22.2294 46.3844 25.0001Z" fill="#EBF2F2"/>
<path d="M35.8163 6.55946L5.79292 34.3944C4.4003 31.5595 3.61621 28.3675 3.61621 25.0001C3.61621 22.5015 4.04629 20.1054 4.83622 17.876L19.8567 4.24524C21.5039 3.83564 23.2271 3.61914 25.0001 3.61914C28.9439 3.61914 32.642 4.68994 35.8163 6.55946Z" fill="white"/>
<path d="M44.8892 17.1507L15.6704 44.2396C12.7271 42.806 10.1613 40.7171 8.16016 38.1659L39.7283 9.51465C41.9606 11.6358 43.7365 14.2367 44.8892 17.1507Z" fill="white"/>
<path d="M25.0001 78.5133C38.5649 78.5133 49.5613 77.8112 49.5613 76.9451C49.5613 76.0791 38.5649 75.377 25.0001 75.377C11.4354 75.377 0.438965 76.0791 0.438965 76.9451C0.438965 77.8112 11.4354 78.5133 25.0001 78.5133Z" fill="#E2E2E2"/>
<path d="M16.6406 32.8066L24.2578 25.8047C25.0098 25.082 25.5908 24.4814 26.001 24.0029C26.4209 23.5244 26.7432 23.0508 26.9678 22.582C27.1924 22.1035 27.3047 21.5957 27.3047 21.0586C27.3047 20.4434 27.1582 19.9062 26.8652 19.4473C26.582 18.9883 26.1816 18.6367 25.6641 18.3926C25.1562 18.1387 24.5801 18.0117 23.9355 18.0117C22.9395 18.0117 22.1436 18.3096 21.5479 18.9053C20.9521 19.4912 20.6543 20.2871 20.6543 21.293H16.4648C16.4551 19.9258 16.7627 18.7295 17.3877 17.7041C18.0225 16.6787 18.9111 15.8877 20.0537 15.3311C21.1963 14.7744 22.5098 14.4961 23.9941 14.4961C25.4883 14.4961 26.8066 14.7646 27.9492 15.3018C29.0918 15.8291 29.9756 16.5664 30.6006 17.5137C31.2354 18.4609 31.5527 19.5449 31.5527 20.7656C31.5527 21.5957 31.3916 22.3965 31.0693 23.168C30.7471 23.9297 30.1855 24.7842 29.3848 25.7314C28.5938 26.6689 27.4707 27.7969 26.0156 29.1152L22.793 32.25V32.3672H31.8457V36H16.6699L16.6406 32.8066Z" fill="#111111"/>
</svg>
