<svg width="40" height="39" viewBox="0 0 40 39" fill="none" xmlns="http://www.w3.org/2000/svg">
<path d="M20.0993 38.5966C30.6614 38.5966 39.2236 30.0344 39.2236 19.4724C39.2236 8.91037 30.6614 0.348145 20.0993 0.348145C9.53733 0.348145 0.975098 8.91037 0.975098 19.4724C0.975098 30.0344 9.53733 38.5966 20.0993 38.5966Z" fill="#34AADF"/>
<path d="M9.17328 19.0536C9.17328 19.0536 18.6465 15.0234 21.9319 13.6043C23.1914 13.0367 27.4625 11.2202 27.4625 11.2202C27.4625 11.2202 29.4338 10.4255 29.2695 12.3555C29.2147 13.1502 28.7767 15.9316 28.3387 18.9401C27.6815 23.1974 26.9697 27.852 26.9697 27.852C26.9697 27.852 26.8602 29.1576 25.9293 29.3847C24.9984 29.6117 23.4651 28.59 23.1914 28.3629C22.9723 28.1927 19.0845 25.6382 17.6608 24.3894C17.2775 24.0489 16.8394 23.3677 17.7155 22.573C19.6868 20.6998 22.0414 18.3725 23.4651 16.8966C24.1223 16.2154 24.7793 14.626 22.0414 16.556C18.1536 19.3375 14.3205 21.9486 14.3205 21.9486C14.3205 21.9486 13.4444 22.5162 11.8017 22.0053C10.1589 21.4945 8.24233 20.8133 8.24233 20.8133C8.24233 20.8133 6.92821 19.9619 9.17328 19.0536Z" fill="white"/>
</svg>
