<svg width="20" height="20" viewBox="0 0 20 20" fill="none" xmlns="http://www.w3.org/2000/svg">
<path d="M10.0001 10.8333C10.8242 10.8333 11.6298 10.589 12.315 10.1311C13.0002 9.67329 13.5342 9.02254 13.8496 8.26118C14.1649 7.49982 14.2475 6.66205 14.0867 5.85379C13.9259 5.04554 13.5291 4.30311 12.9464 3.72039C12.3636 3.13767 11.6212 2.74083 10.813 2.58006C10.0047 2.41929 9.16693 2.50181 8.40557 2.81717C7.64421 3.13254 6.99346 3.66659 6.53562 4.35179C6.07779 5.037 5.83341 5.84258 5.83341 6.66667C5.83341 7.77174 6.2724 8.83155 7.0538 9.61295C7.8352 10.3943 8.89501 10.8333 10.0001 10.8333ZM10.0001 4.16667C10.4945 4.16667 10.9779 4.31329 11.389 4.58799C11.8001 4.8627 12.1206 5.25314 12.3098 5.70996C12.499 6.16678 12.5485 6.66944 12.452 7.15439C12.3556 7.63935 12.1175 8.08481 11.7678 8.43444C11.4182 8.78407 10.9728 9.02217 10.4878 9.11863C10.0029 9.2151 9.50019 9.16559 9.04337 8.97637C8.58656 8.78715 8.19611 8.46672 7.92141 8.05559C7.6467 7.64447 7.50008 7.16112 7.50008 6.66667C7.50008 6.00363 7.76347 5.36774 8.23231 4.8989C8.70116 4.43006 9.33704 4.16667 10.0001 4.16667ZM15.8334 15V16.6667C15.8334 16.8877 15.7456 17.0996 15.5893 17.2559C15.4331 17.4122 15.2211 17.5 15.0001 17.5C14.7791 17.5 14.5671 17.4122 14.4108 17.2559C14.2545 17.0996 14.1667 16.8877 14.1667 16.6667V15C14.1667 14.779 14.079 14.567 13.9227 14.4107C13.7664 14.2545 13.5544 14.1667 13.3334 14.1667H6.66675C6.44573 14.1667 6.23377 14.2545 6.07749 14.4107C5.92121 14.567 5.83341 14.779 5.83341 15V16.6667C5.83341 16.8877 5.74562 17.0996 5.58934 17.2559C5.43306 17.4122 5.2211 17.5 5.00008 17.5C4.77907 17.5 4.56711 17.4122 4.41083 17.2559C4.25455 17.0996 4.16675 16.8877 4.16675 16.6667V15C4.16675 14.337 4.43014 13.7011 4.89898 13.2322C5.36782 12.7634 6.00371 12.5 6.66675 12.5H13.3334C13.9965 12.5 14.6323 12.7634 15.1012 13.2322C15.57 13.7011 15.8334 14.337 15.8334 15Z" fill="#FF6900"/>
</svg>
