<svg width="41" height="28" viewBox="0 0 41 28" fill="none" xmlns="http://www.w3.org/2000/svg">
<path d="M39.4293 4.37182C38.9723 2.65364 37.6203 1.29818 35.9002 0.833637C32.7899 3.03442e-07 20.3108 0 20.3108 0C20.3108 0 7.83812 3.03442e-07 4.72153 0.833637C3.00772 1.29182 1.65572 2.64727 1.19235 4.37182C0.36084 7.49 0.36084 14 0.36084 14C0.36084 14 0.36084 20.51 1.19235 23.6282C1.64937 25.3464 3.00137 26.7018 4.72153 27.1664C7.83812 28 20.3108 28 20.3108 28C20.3108 28 32.7899 28 35.9002 27.1664C37.614 26.7082 38.966 25.3527 39.4293 23.6282C40.2608 20.51 40.2608 14 40.2608 14C40.2608 14 40.2608 7.49 39.4293 4.37182Z" fill="#FF3000"/>
<path d="M16.3246 20.0009L26.69 14L16.3246 7.99909V20.0009Z" fill="white"/>
</svg>
